<?xml version="1.0" standalone="no"?>
<!DOCTYPE svg PUBLIC "-//W3C//DTD SVG 20010904//EN"
 "http://www.w3.org/TR/2001/REC-SVG-20010904/DTD/svg10.dtd">
<svg version="1.0" xmlns="http://www.w3.org/2000/svg"
 width="920.000000pt" height="512.000000pt" viewBox="0 0 920.000000 512.000000"
 preserveAspectRatio="xMidYMid meet">

<g transform="translate(0.000000,512.000000) scale(0.100000,-0.100000)"
fill="#000000" stroke="none">
<path d="M2583 4141 c-108 -37 -178 -111 -210 -220 -41 -144 35 -303 176 -370
l56 -26 1995 0 1995 0 56 26 c117 55 184 160 184 289 0 129 -67 234 -184 289
l-56 26 -1980 2 c-1885 2 -1982 2 -2032 -16z"/>
<path d="M2583 2861 c-108 -37 -178 -111 -210 -220 -41 -144 35 -303 176 -370
l56 -26 1995 0 1995 0 56 26 c117 55 184 160 184 289 0 129 -67 234 -184 289
l-56 26 -1980 2 c-1885 2 -1982 2 -2032 -16z"/>
<path d="M2583 1581 c-108 -37 -178 -111 -210 -220 -41 -144 35 -303 176 -370
l56 -26 1995 0 1995 0 56 26 c117 55 184 160 184 289 0 129 -67 234 -184 289
l-56 26 -1980 2 c-1885 2 -1982 2 -2032 -16z"/>
</g>
</svg>
